<mxfile host="Electron" agent="Mozilla/5.0 (Windows NT 10.0; Win64; x64) AppleWebKit/537.36 (KHTML, like Gecko) draw.io/26.2.2 Chrome/134.0.6998.178 Electron/35.1.2 Safari/537.36" version="26.2.2">
  <diagram name="Pagina-1" id="wyN1VwN4pHTcWlXGs2FL">
    <mxGraphModel dx="5712" dy="3364" grid="1" gridSize="10" guides="1" tooltips="1" connect="1" arrows="1" fold="1" page="1" pageScale="1" pageWidth="3300" pageHeight="2339" math="0" shadow="0">
      <root>
        <mxCell id="0" />
        <mxCell id="1" parent="0" />
        <mxCell id="Ovf7T6jThl39e3ReQagI-115" value="" style="rounded=0;whiteSpace=wrap;html=1;sketch=1;curveFitting=1;jiggle=2;shadow=1;" vertex="1" parent="1">
          <mxGeometry x="1370" y="210" width="1680" height="1920" as="geometry" />
        </mxCell>
        <mxCell id="xM52XFp6zNSZbGLavdWg-8" value="&lt;b&gt;Se inicia accediendo con las credenciales al&amp;nbsp;&lt;u&gt;OpenAI&lt;/u&gt;&amp;nbsp;y&amp;nbsp;&lt;u&gt;Spotify API&lt;/u&gt;&lt;/b&gt;" style="rounded=1;whiteSpace=wrap;html=1;sketch=1;curveFitting=1;jiggle=2;shadow=1;" parent="1" vertex="1">
          <mxGeometry x="1637.5" y="270" width="325" height="80" as="geometry" />
        </mxCell>
        <mxCell id="-m_-jtp-lbjIBYHTF8Le-231" value="" style="rounded=1;whiteSpace=wrap;html=1;sketch=1;curveFitting=1;jiggle=2;shadow=1;" parent="1" vertex="1">
          <mxGeometry x="1440" y="430" width="720" height="640" as="geometry" />
        </mxCell>
        <mxCell id="-m_-jtp-lbjIBYHTF8Le-232" style="edgeStyle=orthogonalEdgeStyle;rounded=0;orthogonalLoop=1;jettySize=auto;html=1;exitX=0.5;exitY=1;exitDx=0;exitDy=0;" parent="1" edge="1">
          <mxGeometry relative="1" as="geometry">
            <mxPoint x="1937.5" y="792.5000000000002" as="sourcePoint" />
            <mxPoint x="1937.5" y="792.5000000000002" as="targetPoint" />
          </mxGeometry>
        </mxCell>
        <mxCell id="Ovf7T6jThl39e3ReQagI-15" style="edgeStyle=orthogonalEdgeStyle;rounded=0;orthogonalLoop=1;jettySize=auto;html=1;exitX=0;exitY=0.5;exitDx=0;exitDy=0;strokeWidth=3;" edge="1" parent="1" source="-m_-jtp-lbjIBYHTF8Le-236" target="-m_-jtp-lbjIBYHTF8Le-243">
          <mxGeometry relative="1" as="geometry" />
        </mxCell>
        <mxCell id="-m_-jtp-lbjIBYHTF8Le-236" value="&lt;font style=&quot;font-size: 20px;&quot;&gt;&lt;u&gt;&lt;b style=&quot;&quot;&gt;STEP&amp;nbsp;&lt;/b&gt;&lt;b style=&quot;background-color: transparent; color: light-dark(rgb(0, 0, 0), rgb(255, 255, 255));&quot;&gt;1&lt;/b&gt;&lt;/u&gt;&lt;/font&gt;" style="rounded=1;whiteSpace=wrap;html=1;shadow=1;sketch=1;curveFitting=1;jiggle=2;" parent="1" vertex="1">
          <mxGeometry x="1740" y="470" width="120" height="60" as="geometry" />
        </mxCell>
        <mxCell id="-m_-jtp-lbjIBYHTF8Le-237" value="&lt;b&gt;Conversación normal para llevar al usuario a entender el mood&lt;/b&gt;" style="rounded=1;whiteSpace=wrap;html=1;shadow=1;sketch=1;curveFitting=1;jiggle=2;" parent="1" vertex="1">
          <mxGeometry x="1790" y="610" width="240" height="60" as="geometry" />
        </mxCell>
        <mxCell id="Ovf7T6jThl39e3ReQagI-13" style="edgeStyle=orthogonalEdgeStyle;rounded=0;orthogonalLoop=1;jettySize=auto;html=1;exitX=0.5;exitY=1;exitDx=0;exitDy=0;entryX=0.5;entryY=0;entryDx=0;entryDy=0;strokeWidth=3;" edge="1" parent="1" source="-m_-jtp-lbjIBYHTF8Le-239" target="-m_-jtp-lbjIBYHTF8Le-257">
          <mxGeometry relative="1" as="geometry" />
        </mxCell>
        <mxCell id="-m_-jtp-lbjIBYHTF8Le-239" value="&lt;div style=&quot;&quot;&gt;&lt;b style=&quot;background-color: transparent; color: light-dark(rgb(0, 0, 0), rgb(255, 255, 255));&quot;&gt;Análisis del mood del usuario&lt;/b&gt;&lt;/div&gt;&lt;div style=&quot;&quot;&gt;&lt;b style=&quot;background-color: transparent; color: light-dark(rgb(0, 0, 0), rgb(255, 255, 255));&quot;&gt;&lt;br&gt;&lt;/b&gt;&lt;/div&gt;&lt;b style=&quot;background-color: transparent; color: light-dark(rgb(0, 0, 0), rgb(255, 255, 255));&quot;&gt;&lt;div style=&quot;&quot;&gt;&lt;b style=&quot;background-color: transparent; color: light-dark(rgb(0, 0, 0), rgb(255, 255, 255));&quot;&gt;Sadness / Depression&lt;/b&gt;&lt;br&gt;&lt;b style=&quot;background-color: transparent; color: light-dark(rgb(0, 0, 0), rgb(255, 255, 255));&quot;&gt;Joy / Excitement&lt;/b&gt;&lt;br&gt;&lt;b style=&quot;background-color: transparent; color: light-dark(rgb(0, 0, 0), rgb(255, 255, 255));&quot;&gt;Sadness / Depression&lt;/b&gt;&lt;br&gt;&lt;b style=&quot;background-color: transparent; color: light-dark(rgb(0, 0, 0), rgb(255, 255, 255));&quot;&gt;Anger / Tense&lt;/b&gt;&lt;br&gt;&lt;b style=&quot;background-color: transparent; color: light-dark(rgb(0, 0, 0), rgb(255, 255, 255));&quot;&gt;Undetected&lt;/b&gt;&lt;/div&gt;&lt;/b&gt;" style="rounded=1;whiteSpace=wrap;html=1;shadow=1;sketch=1;curveFitting=1;jiggle=2;align=center;" parent="1" vertex="1">
          <mxGeometry x="1790" y="740" width="240" height="120" as="geometry" />
        </mxCell>
        <mxCell id="-m_-jtp-lbjIBYHTF8Le-243" value="&lt;b&gt;Chat History&lt;br&gt;User &amp;amp; bot&lt;/b&gt;" style="rounded=1;whiteSpace=wrap;html=1;shadow=1;sketch=1;curveFitting=1;jiggle=2;" parent="1" vertex="1">
          <mxGeometry x="1470" y="580" width="160" height="280" as="geometry" />
        </mxCell>
        <mxCell id="Ovf7T6jThl39e3ReQagI-23" style="edgeStyle=orthogonalEdgeStyle;rounded=0;orthogonalLoop=1;jettySize=auto;html=1;exitX=0.5;exitY=1;exitDx=0;exitDy=0;strokeWidth=3;" edge="1" parent="1" source="-m_-jtp-lbjIBYHTF8Le-249" target="-m_-jtp-lbjIBYHTF8Le-231">
          <mxGeometry relative="1" as="geometry" />
        </mxCell>
        <mxCell id="-m_-jtp-lbjIBYHTF8Le-249" value="&lt;b&gt;SI&lt;/b&gt;" style="rounded=1;whiteSpace=wrap;html=1;" parent="1" vertex="1">
          <mxGeometry x="1890" y="980" width="40" height="40" as="geometry" />
        </mxCell>
        <mxCell id="Ovf7T6jThl39e3ReQagI-8" style="edgeStyle=orthogonalEdgeStyle;rounded=0;orthogonalLoop=1;jettySize=auto;html=1;exitX=1;exitY=0.5;exitDx=0;exitDy=0;entryX=0;entryY=0.5;entryDx=0;entryDy=0;strokeWidth=3;startArrow=classic;startFill=1;" edge="1" parent="1" source="-m_-jtp-lbjIBYHTF8Le-251" target="-m_-jtp-lbjIBYHTF8Le-237">
          <mxGeometry relative="1" as="geometry" />
        </mxCell>
        <mxCell id="-m_-jtp-lbjIBYHTF8Le-251" value="&lt;b&gt;BOT&amp;nbsp;&amp;nbsp;&lt;/b&gt;&lt;b style=&quot;background-color: transparent; color: light-dark(rgb(0, 0, 0), rgb(255, 255, 255));&quot;&gt;1&lt;/b&gt;" style="rounded=1;whiteSpace=wrap;html=1;shadow=1;sketch=1;curveFitting=1;jiggle=2;" parent="1" vertex="1">
          <mxGeometry x="1671.25" y="620" width="78.75" height="40" as="geometry" />
        </mxCell>
        <mxCell id="Ovf7T6jThl39e3ReQagI-14" style="edgeStyle=orthogonalEdgeStyle;rounded=0;orthogonalLoop=1;jettySize=auto;html=1;exitX=0.5;exitY=1;exitDx=0;exitDy=0;entryX=0.5;entryY=0;entryDx=0;entryDy=0;strokeWidth=3;" edge="1" parent="1" source="-m_-jtp-lbjIBYHTF8Le-257" target="-m_-jtp-lbjIBYHTF8Le-249">
          <mxGeometry relative="1" as="geometry" />
        </mxCell>
        <mxCell id="Ovf7T6jThl39e3ReQagI-17" style="edgeStyle=orthogonalEdgeStyle;rounded=0;orthogonalLoop=1;jettySize=auto;html=1;exitX=1;exitY=0.5;exitDx=0;exitDy=0;entryX=0;entryY=0.5;entryDx=0;entryDy=0;strokeWidth=3;" edge="1" parent="1" source="-m_-jtp-lbjIBYHTF8Le-257" target="Ovf7T6jThl39e3ReQagI-16">
          <mxGeometry relative="1" as="geometry" />
        </mxCell>
        <mxCell id="-m_-jtp-lbjIBYHTF8Le-257" value="&lt;b&gt;¿El Bot 2 Devuelve el mood del usuario?&lt;/b&gt;" style="rounded=1;whiteSpace=wrap;html=1;" parent="1" vertex="1">
          <mxGeometry x="1830" y="900" width="160" height="40" as="geometry" />
        </mxCell>
        <mxCell id="-m_-jtp-lbjIBYHTF8Le-260" style="edgeStyle=orthogonalEdgeStyle;rounded=0;orthogonalLoop=1;jettySize=auto;html=1;exitX=0.5;exitY=1;exitDx=0;exitDy=0;" parent="1" source="-m_-jtp-lbjIBYHTF8Le-257" target="-m_-jtp-lbjIBYHTF8Le-257" edge="1">
          <mxGeometry relative="1" as="geometry" />
        </mxCell>
        <mxCell id="Ovf7T6jThl39e3ReQagI-1" value="" style="shape=flexArrow;endArrow=classic;html=1;rounded=0;sketch=1;curveFitting=1;jiggle=2;shadow=1;" edge="1" parent="1">
          <mxGeometry width="50" height="50" relative="1" as="geometry">
            <mxPoint x="2260" y="1628.75" as="sourcePoint" />
            <mxPoint x="2190" y="1628.75" as="targetPoint" />
          </mxGeometry>
        </mxCell>
        <mxCell id="Ovf7T6jThl39e3ReQagI-9" style="edgeStyle=orthogonalEdgeStyle;rounded=0;orthogonalLoop=1;jettySize=auto;html=1;exitX=1;exitY=0.5;exitDx=0;exitDy=0;entryX=0;entryY=0.5;entryDx=0;entryDy=0;strokeWidth=3;" edge="1" parent="1" source="Ovf7T6jThl39e3ReQagI-6" target="-m_-jtp-lbjIBYHTF8Le-239">
          <mxGeometry relative="1" as="geometry" />
        </mxCell>
        <mxCell id="Ovf7T6jThl39e3ReQagI-6" value="&lt;b&gt;BOT&amp;nbsp; 2&lt;/b&gt;" style="rounded=1;whiteSpace=wrap;html=1;shadow=1;sketch=1;curveFitting=1;jiggle=2;" vertex="1" parent="1">
          <mxGeometry x="1671.25" y="780" width="78.75" height="40" as="geometry" />
        </mxCell>
        <mxCell id="Ovf7T6jThl39e3ReQagI-11" style="edgeStyle=orthogonalEdgeStyle;rounded=0;orthogonalLoop=1;jettySize=auto;html=1;exitX=1;exitY=0.5;exitDx=0;exitDy=0;entryX=0;entryY=0.5;entryDx=0;entryDy=0;strokeWidth=3;startArrow=classic;startFill=1;" edge="1" parent="1">
          <mxGeometry relative="1" as="geometry">
            <mxPoint x="1631.25" y="639.5699999999999" as="sourcePoint" />
            <mxPoint x="1671.25" y="639.5699999999999" as="targetPoint" />
          </mxGeometry>
        </mxCell>
        <mxCell id="Ovf7T6jThl39e3ReQagI-12" style="edgeStyle=orthogonalEdgeStyle;rounded=0;orthogonalLoop=1;jettySize=auto;html=1;exitX=1;exitY=0.5;exitDx=0;exitDy=0;entryX=0;entryY=0.5;entryDx=0;entryDy=0;strokeWidth=3;" edge="1" parent="1">
          <mxGeometry relative="1" as="geometry">
            <mxPoint x="1631.25" y="799.5699999999999" as="sourcePoint" />
            <mxPoint x="1671.25" y="799.5699999999999" as="targetPoint" />
          </mxGeometry>
        </mxCell>
        <mxCell id="Ovf7T6jThl39e3ReQagI-18" style="edgeStyle=orthogonalEdgeStyle;rounded=0;orthogonalLoop=1;jettySize=auto;html=1;exitX=1;exitY=0.5;exitDx=0;exitDy=0;entryX=1;entryY=0.5;entryDx=0;entryDy=0;strokeWidth=3;" edge="1" parent="1" source="Ovf7T6jThl39e3ReQagI-16" target="-m_-jtp-lbjIBYHTF8Le-236">
          <mxGeometry relative="1" as="geometry" />
        </mxCell>
        <mxCell id="Ovf7T6jThl39e3ReQagI-16" value="&lt;b&gt;NO&lt;/b&gt;" style="rounded=1;whiteSpace=wrap;html=1;" vertex="1" parent="1">
          <mxGeometry x="2030" y="900" width="40" height="40" as="geometry" />
        </mxCell>
        <mxCell id="Ovf7T6jThl39e3ReQagI-19" value="" style="shape=flexArrow;endArrow=classic;html=1;rounded=0;sketch=1;curveFitting=1;jiggle=2;shadow=1;" edge="1" parent="1">
          <mxGeometry width="50" height="50" relative="1" as="geometry">
            <mxPoint x="1799.57" y="370" as="sourcePoint" />
            <mxPoint x="1799.57" y="420" as="targetPoint" />
          </mxGeometry>
        </mxCell>
        <mxCell id="Ovf7T6jThl39e3ReQagI-24" style="edgeStyle=orthogonalEdgeStyle;rounded=0;orthogonalLoop=1;jettySize=auto;html=1;exitX=0.5;exitY=0;exitDx=0;exitDy=0;entryX=0.5;entryY=0;entryDx=0;entryDy=0;strokeWidth=3;" edge="1" parent="1" source="-m_-jtp-lbjIBYHTF8Le-231" target="-m_-jtp-lbjIBYHTF8Le-236">
          <mxGeometry relative="1" as="geometry" />
        </mxCell>
        <mxCell id="Ovf7T6jThl39e3ReQagI-25" value="" style="rounded=1;whiteSpace=wrap;html=1;sketch=1;curveFitting=1;jiggle=2;shadow=1;" vertex="1" parent="1">
          <mxGeometry x="2280" y="430" width="720" height="640" as="geometry" />
        </mxCell>
        <mxCell id="Ovf7T6jThl39e3ReQagI-26" style="edgeStyle=orthogonalEdgeStyle;rounded=0;orthogonalLoop=1;jettySize=auto;html=1;exitX=0.5;exitY=1;exitDx=0;exitDy=0;" edge="1" parent="1">
          <mxGeometry relative="1" as="geometry">
            <mxPoint x="2777.5" y="792.5000000000002" as="sourcePoint" />
            <mxPoint x="2777.5" y="792.5000000000002" as="targetPoint" />
          </mxGeometry>
        </mxCell>
        <mxCell id="Ovf7T6jThl39e3ReQagI-27" style="edgeStyle=orthogonalEdgeStyle;rounded=0;orthogonalLoop=1;jettySize=auto;html=1;exitX=0;exitY=0.5;exitDx=0;exitDy=0;strokeWidth=3;" edge="1" parent="1" source="Ovf7T6jThl39e3ReQagI-28" target="Ovf7T6jThl39e3ReQagI-32">
          <mxGeometry relative="1" as="geometry" />
        </mxCell>
        <mxCell id="Ovf7T6jThl39e3ReQagI-28" value="&lt;font style=&quot;font-size: 20px;&quot;&gt;&lt;u&gt;&lt;b style=&quot;&quot;&gt;STEP 2&lt;/b&gt;&lt;/u&gt;&lt;/font&gt;" style="rounded=1;whiteSpace=wrap;html=1;shadow=1;sketch=1;curveFitting=1;jiggle=2;" vertex="1" parent="1">
          <mxGeometry x="2580" y="470" width="120" height="60" as="geometry" />
        </mxCell>
        <mxCell id="Ovf7T6jThl39e3ReQagI-29" value="&lt;b style=&quot;background-color: rgb(251, 251, 251);&quot;&gt;Conversación casual para entender de acuerdo al estado de ánimo que mood de música quiere escuchar&lt;/b&gt;" style="rounded=1;whiteSpace=wrap;html=1;shadow=1;sketch=1;curveFitting=1;jiggle=2;" vertex="1" parent="1">
          <mxGeometry x="2630" y="610" width="240" height="60" as="geometry" />
        </mxCell>
        <mxCell id="Ovf7T6jThl39e3ReQagI-30" style="edgeStyle=orthogonalEdgeStyle;rounded=0;orthogonalLoop=1;jettySize=auto;html=1;exitX=0.5;exitY=1;exitDx=0;exitDy=0;entryX=0.5;entryY=0;entryDx=0;entryDy=0;strokeWidth=3;" edge="1" parent="1" source="Ovf7T6jThl39e3ReQagI-31" target="Ovf7T6jThl39e3ReQagI-39">
          <mxGeometry relative="1" as="geometry" />
        </mxCell>
        <mxCell id="Ovf7T6jThl39e3ReQagI-31" value="&lt;div style=&quot;&quot;&gt;&lt;b style=&quot;background-color: rgb(251, 251, 251);&quot;&gt;Analiza el mood de música que el ususario quiere&amp;nbsp;&lt;/b&gt;&lt;/div&gt;&lt;div style=&quot;&quot;&gt;&lt;b style=&quot;background-color: transparent; color: light-dark(rgb(0, 0, 0), rgb(255, 255, 255));&quot;&gt;&lt;br&gt;&lt;/b&gt;&lt;/div&gt;&lt;b style=&quot;background-color: transparent; color: light-dark(rgb(0, 0, 0), rgb(255, 255, 255));&quot;&gt;&lt;div style=&quot;&quot;&gt;&lt;b style=&quot;background-color: transparent; color: light-dark(rgb(0, 0, 0), rgb(255, 255, 255));&quot;&gt;Sadness / Depression&lt;/b&gt;&lt;br&gt;&lt;b style=&quot;background-color: transparent; color: light-dark(rgb(0, 0, 0), rgb(255, 255, 255));&quot;&gt;Joy / Excitement&lt;/b&gt;&lt;br&gt;&lt;b style=&quot;background-color: transparent; color: light-dark(rgb(0, 0, 0), rgb(255, 255, 255));&quot;&gt;Sadness / Depression&lt;/b&gt;&lt;br&gt;&lt;b style=&quot;background-color: transparent; color: light-dark(rgb(0, 0, 0), rgb(255, 255, 255));&quot;&gt;Anger / Tense&lt;/b&gt;&lt;br&gt;&lt;b style=&quot;background-color: transparent; color: light-dark(rgb(0, 0, 0), rgb(255, 255, 255));&quot;&gt;Undetected&lt;/b&gt;&lt;/div&gt;&lt;/b&gt;" style="rounded=1;whiteSpace=wrap;html=1;shadow=1;sketch=1;curveFitting=1;jiggle=2;align=center;" vertex="1" parent="1">
          <mxGeometry x="2630" y="740" width="240" height="120" as="geometry" />
        </mxCell>
        <mxCell id="Ovf7T6jThl39e3ReQagI-32" value="&lt;b&gt;Chat History&lt;br&gt;User &amp;amp; bot&lt;br&gt;&lt;br&gt;&lt;/b&gt;&lt;div&gt;&lt;b&gt;+&lt;/b&gt;&lt;/div&gt;&lt;div&gt;&lt;b&gt;&lt;br&gt;User Mood&lt;/b&gt;&lt;/div&gt;" style="rounded=1;whiteSpace=wrap;html=1;shadow=1;sketch=1;curveFitting=1;jiggle=2;" vertex="1" parent="1">
          <mxGeometry x="2310" y="580" width="160" height="280" as="geometry" />
        </mxCell>
        <mxCell id="Ovf7T6jThl39e3ReQagI-33" style="edgeStyle=orthogonalEdgeStyle;rounded=0;orthogonalLoop=1;jettySize=auto;html=1;exitX=0.5;exitY=1;exitDx=0;exitDy=0;strokeWidth=3;" edge="1" parent="1" source="Ovf7T6jThl39e3ReQagI-34" target="Ovf7T6jThl39e3ReQagI-25">
          <mxGeometry relative="1" as="geometry" />
        </mxCell>
        <mxCell id="Ovf7T6jThl39e3ReQagI-34" value="&lt;b&gt;SI&lt;/b&gt;" style="rounded=1;whiteSpace=wrap;html=1;" vertex="1" parent="1">
          <mxGeometry x="2730" y="980" width="40" height="40" as="geometry" />
        </mxCell>
        <mxCell id="Ovf7T6jThl39e3ReQagI-35" style="edgeStyle=orthogonalEdgeStyle;rounded=0;orthogonalLoop=1;jettySize=auto;html=1;exitX=1;exitY=0.5;exitDx=0;exitDy=0;entryX=0;entryY=0.5;entryDx=0;entryDy=0;strokeWidth=3;startArrow=classic;startFill=1;" edge="1" parent="1" source="Ovf7T6jThl39e3ReQagI-36" target="Ovf7T6jThl39e3ReQagI-29">
          <mxGeometry relative="1" as="geometry" />
        </mxCell>
        <mxCell id="Ovf7T6jThl39e3ReQagI-36" value="&lt;b&gt;BOT&amp;nbsp; 3&lt;/b&gt;" style="rounded=1;whiteSpace=wrap;html=1;shadow=1;sketch=1;curveFitting=1;jiggle=2;" vertex="1" parent="1">
          <mxGeometry x="2511.25" y="620" width="78.75" height="40" as="geometry" />
        </mxCell>
        <mxCell id="Ovf7T6jThl39e3ReQagI-37" style="edgeStyle=orthogonalEdgeStyle;rounded=0;orthogonalLoop=1;jettySize=auto;html=1;exitX=0.5;exitY=1;exitDx=0;exitDy=0;entryX=0.5;entryY=0;entryDx=0;entryDy=0;strokeWidth=3;" edge="1" parent="1" source="Ovf7T6jThl39e3ReQagI-39" target="Ovf7T6jThl39e3ReQagI-34">
          <mxGeometry relative="1" as="geometry" />
        </mxCell>
        <mxCell id="Ovf7T6jThl39e3ReQagI-38" style="edgeStyle=orthogonalEdgeStyle;rounded=0;orthogonalLoop=1;jettySize=auto;html=1;exitX=1;exitY=0.5;exitDx=0;exitDy=0;entryX=0;entryY=0.5;entryDx=0;entryDy=0;strokeWidth=3;" edge="1" parent="1" source="Ovf7T6jThl39e3ReQagI-39" target="Ovf7T6jThl39e3ReQagI-46">
          <mxGeometry relative="1" as="geometry" />
        </mxCell>
        <mxCell id="Ovf7T6jThl39e3ReQagI-39" value="&lt;b style=&quot;background-color: rgb(251, 251, 251);&quot;&gt;¿El Bot 4 Devuelve el mood de musica del usuario?&lt;/b&gt;" style="rounded=1;whiteSpace=wrap;html=1;" vertex="1" parent="1">
          <mxGeometry x="2670" y="900" width="160" height="40" as="geometry" />
        </mxCell>
        <mxCell id="Ovf7T6jThl39e3ReQagI-40" style="edgeStyle=orthogonalEdgeStyle;rounded=0;orthogonalLoop=1;jettySize=auto;html=1;exitX=0.5;exitY=1;exitDx=0;exitDy=0;" edge="1" parent="1" source="Ovf7T6jThl39e3ReQagI-39" target="Ovf7T6jThl39e3ReQagI-39">
          <mxGeometry relative="1" as="geometry" />
        </mxCell>
        <mxCell id="Ovf7T6jThl39e3ReQagI-41" style="edgeStyle=orthogonalEdgeStyle;rounded=0;orthogonalLoop=1;jettySize=auto;html=1;exitX=1;exitY=0.5;exitDx=0;exitDy=0;entryX=0;entryY=0.5;entryDx=0;entryDy=0;strokeWidth=3;" edge="1" parent="1" source="Ovf7T6jThl39e3ReQagI-42" target="Ovf7T6jThl39e3ReQagI-31">
          <mxGeometry relative="1" as="geometry" />
        </mxCell>
        <mxCell id="Ovf7T6jThl39e3ReQagI-42" value="&lt;b&gt;BOT&amp;nbsp; 4&lt;/b&gt;" style="rounded=1;whiteSpace=wrap;html=1;shadow=1;sketch=1;curveFitting=1;jiggle=2;" vertex="1" parent="1">
          <mxGeometry x="2511.25" y="780" width="78.75" height="40" as="geometry" />
        </mxCell>
        <mxCell id="Ovf7T6jThl39e3ReQagI-43" style="edgeStyle=orthogonalEdgeStyle;rounded=0;orthogonalLoop=1;jettySize=auto;html=1;exitX=1;exitY=0.5;exitDx=0;exitDy=0;entryX=0;entryY=0.5;entryDx=0;entryDy=0;strokeWidth=3;startArrow=classic;startFill=1;" edge="1" parent="1">
          <mxGeometry relative="1" as="geometry">
            <mxPoint x="2471.25" y="639.5699999999999" as="sourcePoint" />
            <mxPoint x="2511.25" y="639.5699999999999" as="targetPoint" />
          </mxGeometry>
        </mxCell>
        <mxCell id="Ovf7T6jThl39e3ReQagI-44" style="edgeStyle=orthogonalEdgeStyle;rounded=0;orthogonalLoop=1;jettySize=auto;html=1;exitX=1;exitY=0.5;exitDx=0;exitDy=0;entryX=0;entryY=0.5;entryDx=0;entryDy=0;strokeWidth=3;" edge="1" parent="1">
          <mxGeometry relative="1" as="geometry">
            <mxPoint x="2471.25" y="799.5699999999999" as="sourcePoint" />
            <mxPoint x="2511.25" y="799.5699999999999" as="targetPoint" />
          </mxGeometry>
        </mxCell>
        <mxCell id="Ovf7T6jThl39e3ReQagI-45" style="edgeStyle=orthogonalEdgeStyle;rounded=0;orthogonalLoop=1;jettySize=auto;html=1;exitX=1;exitY=0.5;exitDx=0;exitDy=0;entryX=1;entryY=0.5;entryDx=0;entryDy=0;strokeWidth=3;" edge="1" parent="1" source="Ovf7T6jThl39e3ReQagI-46" target="Ovf7T6jThl39e3ReQagI-28">
          <mxGeometry relative="1" as="geometry" />
        </mxCell>
        <mxCell id="Ovf7T6jThl39e3ReQagI-46" value="&lt;b&gt;NO&lt;/b&gt;" style="rounded=1;whiteSpace=wrap;html=1;" vertex="1" parent="1">
          <mxGeometry x="2870" y="900" width="40" height="40" as="geometry" />
        </mxCell>
        <mxCell id="Ovf7T6jThl39e3ReQagI-47" style="edgeStyle=orthogonalEdgeStyle;rounded=0;orthogonalLoop=1;jettySize=auto;html=1;exitX=0.5;exitY=0;exitDx=0;exitDy=0;entryX=0.5;entryY=0;entryDx=0;entryDy=0;strokeWidth=3;" edge="1" parent="1" source="Ovf7T6jThl39e3ReQagI-25" target="Ovf7T6jThl39e3ReQagI-28">
          <mxGeometry relative="1" as="geometry" />
        </mxCell>
        <mxCell id="Ovf7T6jThl39e3ReQagI-48" value="" style="shape=flexArrow;endArrow=classic;html=1;rounded=0;sketch=1;curveFitting=1;jiggle=2;shadow=1;" edge="1" parent="1">
          <mxGeometry width="50" height="50" relative="1" as="geometry">
            <mxPoint x="2639" y="1110" as="sourcePoint" />
            <mxPoint x="2639" y="1160" as="targetPoint" />
          </mxGeometry>
        </mxCell>
        <mxCell id="Ovf7T6jThl39e3ReQagI-49" value="" style="rounded=1;whiteSpace=wrap;html=1;sketch=1;curveFitting=1;jiggle=2;shadow=1;" vertex="1" parent="1">
          <mxGeometry x="2280" y="1190" width="720" height="880" as="geometry" />
        </mxCell>
        <mxCell id="Ovf7T6jThl39e3ReQagI-50" style="edgeStyle=orthogonalEdgeStyle;rounded=0;orthogonalLoop=1;jettySize=auto;html=1;exitX=0.5;exitY=1;exitDx=0;exitDy=0;" edge="1" parent="1">
          <mxGeometry relative="1" as="geometry">
            <mxPoint x="2817.5" y="1552.5" as="sourcePoint" />
            <mxPoint x="2817.5" y="1552.5" as="targetPoint" />
          </mxGeometry>
        </mxCell>
        <mxCell id="Ovf7T6jThl39e3ReQagI-51" style="edgeStyle=orthogonalEdgeStyle;rounded=0;orthogonalLoop=1;jettySize=auto;html=1;exitX=0;exitY=0.5;exitDx=0;exitDy=0;strokeWidth=3;" edge="1" parent="1" source="Ovf7T6jThl39e3ReQagI-52" target="Ovf7T6jThl39e3ReQagI-56">
          <mxGeometry relative="1" as="geometry" />
        </mxCell>
        <mxCell id="Ovf7T6jThl39e3ReQagI-52" value="&lt;font style=&quot;font-size: 20px;&quot;&gt;&lt;u&gt;&lt;b style=&quot;&quot;&gt;STEP 3&lt;/b&gt;&lt;/u&gt;&lt;/font&gt;" style="rounded=1;whiteSpace=wrap;html=1;shadow=1;sketch=1;curveFitting=1;jiggle=2;" vertex="1" parent="1">
          <mxGeometry x="2580" y="1230" width="120" height="60" as="geometry" />
        </mxCell>
        <mxCell id="Ovf7T6jThl39e3ReQagI-56" value="&lt;b&gt;Cargar el nuevo dataset con las canciones ya clasificadas con el mejor ML obtenido en el proyecto&lt;/b&gt;" style="rounded=1;whiteSpace=wrap;html=1;shadow=1;sketch=1;curveFitting=1;jiggle=2;" vertex="1" parent="1">
          <mxGeometry x="2310" y="1340" width="190" height="690" as="geometry" />
        </mxCell>
        <mxCell id="Ovf7T6jThl39e3ReQagI-77" style="edgeStyle=orthogonalEdgeStyle;rounded=0;orthogonalLoop=1;jettySize=auto;html=1;exitX=0.5;exitY=1;exitDx=0;exitDy=0;entryX=0.5;entryY=0;entryDx=0;entryDy=0;strokeWidth=3;" edge="1" parent="1" source="Ovf7T6jThl39e3ReQagI-74" target="Ovf7T6jThl39e3ReQagI-75">
          <mxGeometry relative="1" as="geometry" />
        </mxCell>
        <mxCell id="Ovf7T6jThl39e3ReQagI-83" value="" style="edgeStyle=orthogonalEdgeStyle;rounded=0;orthogonalLoop=1;jettySize=auto;html=1;" edge="1" parent="1" source="Ovf7T6jThl39e3ReQagI-74" target="Ovf7T6jThl39e3ReQagI-75">
          <mxGeometry relative="1" as="geometry" />
        </mxCell>
        <mxCell id="Ovf7T6jThl39e3ReQagI-74" value="&lt;span style=&quot;background-color: rgb(251, 251, 251);&quot;&gt;&lt;p style=&quot;font-weight: bold;&quot; class=&quot;&quot; data-end=&quot;310&quot; data-start=&quot;256&quot;&gt;&lt;strong data-end=&quot;309&quot; data-start=&quot;256&quot;&gt;&lt;code data-end=&quot;307&quot; data-start=&quot;258&quot;&gt;get_spotify_track_info(track_name, artist_name)&lt;/code&gt;&lt;/strong&gt;:&lt;/p&gt;&lt;ul style=&quot;&quot; data-end=&quot;646&quot; data-start=&quot;314&quot;&gt;&lt;li style=&quot;&quot; class=&quot;&quot; data-end=&quot;448&quot; data-start=&quot;314&quot;&gt;&lt;p style=&quot;&quot; class=&quot;&quot; data-end=&quot;448&quot; data-start=&quot;316&quot;&gt;Esta función toma el nombre de una canción (&lt;code style=&quot;&quot; data-end=&quot;372&quot; data-start=&quot;360&quot;&gt;track_name&lt;/code&gt;) y el nombre del artista (&lt;code style=&quot;&quot; data-end=&quot;412&quot; data-start=&quot;399&quot;&gt;artist_name&lt;/code&gt;) y realiza una búsqueda en Spotify.&lt;/p&gt;&lt;/li&gt;&lt;li style=&quot;&quot; class=&quot;&quot; data-end=&quot;575&quot; data-start=&quot;452&quot;&gt;&lt;p class=&quot;&quot; data-end=&quot;575&quot; data-start=&quot;454&quot;&gt;Si encuentra la canción, devuelve un diccionario con el &lt;span data-end=&quot;530&quot; data-start=&quot;510&quot;&gt;ID de la canción&lt;/span&gt; y el &lt;span data-end=&quot;557&quot; data-start=&quot;536&quot;&gt;enlace de Spotify&lt;/span&gt; para esa canción.&lt;/p&gt;&lt;/li&gt;&lt;li style=&quot;&quot; class=&quot;&quot; data-end=&quot;646&quot; data-start=&quot;579&quot;&gt;&lt;p style=&quot;&quot; class=&quot;&quot; data-end=&quot;646&quot; data-start=&quot;581&quot;&gt;Si no se encuentra la canción o ocurre un error, devuelve &lt;code style=&quot;&quot; data-end=&quot;645&quot; data-start=&quot;639&quot;&gt;None&lt;/code&gt;.&lt;/p&gt;&lt;/li&gt;&lt;/ul&gt;&lt;b&gt;&amp;nbsp;&lt;/b&gt;&lt;/span&gt;" style="rounded=1;whiteSpace=wrap;html=1;shadow=1;sketch=1;curveFitting=1;jiggle=2;align=left;" vertex="1" parent="1">
          <mxGeometry x="2560" y="1350" width="400" height="160" as="geometry" />
        </mxCell>
        <mxCell id="Ovf7T6jThl39e3ReQagI-78" style="edgeStyle=orthogonalEdgeStyle;rounded=0;orthogonalLoop=1;jettySize=auto;html=1;exitX=0.5;exitY=1;exitDx=0;exitDy=0;strokeWidth=3;" edge="1" parent="1" source="Ovf7T6jThl39e3ReQagI-75" target="Ovf7T6jThl39e3ReQagI-76">
          <mxGeometry relative="1" as="geometry" />
        </mxCell>
        <mxCell id="Ovf7T6jThl39e3ReQagI-75" value="&lt;span style=&quot;background-color: rgb(251, 251, 251);&quot;&gt;&lt;p class=&quot;&quot; data-end=&quot;731&quot; data-start=&quot;651&quot;&gt;&lt;strong data-end=&quot;730&quot; data-start=&quot;651&quot;&gt;&lt;code data-end=&quot;728&quot; data-start=&quot;653&quot;&gt;recommend_songs_by_mood(df, mood_input, list_size=10, popularity_pool=30)&lt;/code&gt;&lt;/strong&gt;:&lt;/p&gt;&lt;ul data-end=&quot;1384&quot; data-start=&quot;735&quot;&gt;&lt;li class=&quot;&quot; data-end=&quot;900&quot; data-start=&quot;735&quot;&gt;&lt;p class=&quot;&quot; data-end=&quot;900&quot; data-start=&quot;737&quot;&gt;Esta función recibe un DataFrame &lt;code data-end=&quot;774&quot; data-start=&quot;770&quot;&gt;df&lt;/code&gt; con información sobre canciones y filtra las canciones que coinciden con el &lt;strong data-end=&quot;885&quot; data-start=&quot;851&quot;&gt;estado de ánimo (&lt;code data-end=&quot;882&quot; data-start=&quot;870&quot;&gt;mood_input&lt;/code&gt;)&lt;/strong&gt; proporcionado.&lt;/p&gt;&lt;/li&gt;&lt;li class=&quot;&quot; data-end=&quot;1002&quot; data-start=&quot;904&quot;&gt;&lt;p class=&quot;&quot; data-end=&quot;1002&quot; data-start=&quot;906&quot;&gt;Filtra además canciones de géneros como &lt;strong data-end=&quot;957&quot; data-start=&quot;946&quot;&gt;&#39;latin&#39;&lt;/strong&gt; o artistas específicos como &lt;strong data-end=&quot;1001&quot; data-start=&quot;986&quot;&gt;&#39;Bad Bunny&#39;&lt;/strong&gt;.&lt;/p&gt;&lt;/li&gt;&lt;li class=&quot;&quot; data-end=&quot;1115&quot; data-start=&quot;1006&quot;&gt;&lt;p class=&quot;&quot; data-end=&quot;1115&quot; data-start=&quot;1008&quot;&gt;Luego, selecciona un número de canciones basadas en la &lt;strong data-end=&quot;1078&quot; data-start=&quot;1063&quot;&gt;popularidad&lt;/strong&gt; y crea una lista de recomendaciones.&lt;/p&gt;&lt;/li&gt;&lt;li class=&quot;&quot; data-end=&quot;1260&quot; data-start=&quot;1119&quot;&gt;&lt;p class=&quot;&quot; data-end=&quot;1260&quot; data-start=&quot;1121&quot;&gt;Para cada canción recomendada, llama a la función &lt;code data-end=&quot;1195&quot; data-start=&quot;1171&quot;&gt;get_spotify_track_info&lt;/code&gt; para obtener el &lt;strong data-end=&quot;1232&quot; data-start=&quot;1212&quot;&gt;ID de la canción&lt;/strong&gt; y el &lt;strong data-end=&quot;1259&quot; data-start=&quot;1238&quot;&gt;enlace de Spotify&lt;/strong&gt;.&lt;/p&gt;&lt;/li&gt;&lt;li class=&quot;&quot; data-end=&quot;1384&quot; data-start=&quot;1264&quot;&gt;&lt;p class=&quot;&quot; data-end=&quot;1384&quot; data-start=&quot;1266&quot;&gt;Si hay canciones válidas, devuelve una lista con los detalles de las canciones recomendadas. Si no, devuelve un error.&lt;/p&gt;&lt;/li&gt;&lt;/ul&gt;&lt;/span&gt;" style="rounded=1;whiteSpace=wrap;html=1;shadow=1;sketch=1;curveFitting=1;jiggle=2;align=left;" vertex="1" parent="1">
          <mxGeometry x="2560" y="1550" width="400" height="280" as="geometry" />
        </mxCell>
        <mxCell id="Ovf7T6jThl39e3ReQagI-89" style="edgeStyle=orthogonalEdgeStyle;rounded=0;orthogonalLoop=1;jettySize=auto;html=1;exitX=0.5;exitY=1;exitDx=0;exitDy=0;entryX=0.5;entryY=1;entryDx=0;entryDy=0;strokeWidth=3;" edge="1" parent="1" source="Ovf7T6jThl39e3ReQagI-76" target="Ovf7T6jThl39e3ReQagI-49">
          <mxGeometry relative="1" as="geometry">
            <Array as="points">
              <mxPoint x="2760" y="2050" />
              <mxPoint x="2640" y="2050" />
            </Array>
          </mxGeometry>
        </mxCell>
        <mxCell id="Ovf7T6jThl39e3ReQagI-76" value="&lt;span style=&quot;background-color: rgb(251, 251, 251);&quot;&gt;&lt;p class=&quot;&quot; data-end=&quot;1430&quot; data-start=&quot;1389&quot;&gt;&lt;strong data-end=&quot;1429&quot; data-start=&quot;1389&quot;&gt;&lt;code data-end=&quot;1427&quot; data-start=&quot;1391&quot;&gt;create_spotify_playlist(track_ids)&lt;/code&gt;&lt;/strong&gt;:&lt;/p&gt;&lt;ul data-end=&quot;1753&quot; data-start=&quot;1434&quot;&gt;&lt;li class=&quot;&quot; data-end=&quot;1546&quot; data-start=&quot;1434&quot;&gt;&lt;p class=&quot;&quot; data-end=&quot;1546&quot; data-start=&quot;1436&quot;&gt;Esta función toma una lista de &lt;strong data-end=&quot;1487&quot; data-start=&quot;1467&quot;&gt;IDs de canciones&lt;/strong&gt; (&lt;code data-end=&quot;1500&quot; data-start=&quot;1489&quot;&gt;track_ids&lt;/code&gt;) y crea una lista de reproducción en Spotify.&lt;/p&gt;&lt;/li&gt;&lt;li class=&quot;&quot; data-end=&quot;1635&quot; data-start=&quot;1550&quot;&gt;&lt;p class=&quot;&quot; data-end=&quot;1635&quot; data-start=&quot;1552&quot;&gt;La lista de reproducción se llama &lt;strong data-end=&quot;1621&quot; data-start=&quot;1586&quot;&gt;&#39;Melody Miners Recommendations&#39;&lt;/strong&gt; y es pública.&lt;/p&gt;&lt;/li&gt;&lt;li class=&quot;&quot; data-end=&quot;1753&quot; data-start=&quot;1639&quot;&gt;&lt;p class=&quot;&quot; data-end=&quot;1753&quot; data-start=&quot;1641&quot;&gt;Agrega las canciones a la lista de reproducción y devuelve el &lt;strong data-end=&quot;1741&quot; data-start=&quot;1703&quot;&gt;enlace de la lista de reproducción&lt;/strong&gt; en Spotify.&lt;/p&gt;&lt;/li&gt;&lt;/ul&gt;&lt;/span&gt;" style="rounded=1;whiteSpace=wrap;html=1;shadow=1;sketch=1;curveFitting=1;jiggle=2;align=left;" vertex="1" parent="1">
          <mxGeometry x="2560" y="1870" width="400" height="160" as="geometry" />
        </mxCell>
        <mxCell id="Ovf7T6jThl39e3ReQagI-84" value="" style="edgeStyle=orthogonalEdgeStyle;rounded=0;orthogonalLoop=1;jettySize=auto;html=1;strokeWidth=3;" edge="1" parent="1">
          <mxGeometry relative="1" as="geometry">
            <mxPoint x="2510" y="1430" as="sourcePoint" />
            <mxPoint x="2550" y="1430" as="targetPoint" />
          </mxGeometry>
        </mxCell>
        <mxCell id="Ovf7T6jThl39e3ReQagI-87" style="edgeStyle=orthogonalEdgeStyle;rounded=0;orthogonalLoop=1;jettySize=auto;html=1;exitX=0.5;exitY=0;exitDx=0;exitDy=0;entryX=0.5;entryY=0;entryDx=0;entryDy=0;strokeWidth=3;" edge="1" parent="1" source="Ovf7T6jThl39e3ReQagI-49" target="Ovf7T6jThl39e3ReQagI-52">
          <mxGeometry relative="1" as="geometry" />
        </mxCell>
        <mxCell id="Ovf7T6jThl39e3ReQagI-90" value="" style="rounded=1;whiteSpace=wrap;html=1;sketch=1;curveFitting=1;jiggle=2;shadow=1;" vertex="1" parent="1">
          <mxGeometry x="1440" y="1350" width="720" height="560" as="geometry" />
        </mxCell>
        <mxCell id="Ovf7T6jThl39e3ReQagI-91" style="edgeStyle=orthogonalEdgeStyle;rounded=0;orthogonalLoop=1;jettySize=auto;html=1;exitX=0.5;exitY=1;exitDx=0;exitDy=0;" edge="1" parent="1">
          <mxGeometry relative="1" as="geometry">
            <mxPoint x="1937.5" y="1712.5" as="sourcePoint" />
            <mxPoint x="1937.5" y="1712.5" as="targetPoint" />
          </mxGeometry>
        </mxCell>
        <mxCell id="Ovf7T6jThl39e3ReQagI-92" style="edgeStyle=orthogonalEdgeStyle;rounded=0;orthogonalLoop=1;jettySize=auto;html=1;exitX=0;exitY=0.5;exitDx=0;exitDy=0;strokeWidth=3;" edge="1" parent="1" source="Ovf7T6jThl39e3ReQagI-93" target="Ovf7T6jThl39e3ReQagI-97">
          <mxGeometry relative="1" as="geometry" />
        </mxCell>
        <mxCell id="Ovf7T6jThl39e3ReQagI-93" value="&lt;font style=&quot;font-size: 20px;&quot;&gt;&lt;u&gt;&lt;b style=&quot;&quot;&gt;STEP 4&lt;/b&gt;&lt;/u&gt;&lt;/font&gt;" style="rounded=1;whiteSpace=wrap;html=1;shadow=1;sketch=1;curveFitting=1;jiggle=2;" vertex="1" parent="1">
          <mxGeometry x="1740" y="1390" width="120" height="60" as="geometry" />
        </mxCell>
        <mxCell id="Ovf7T6jThl39e3ReQagI-113" style="edgeStyle=orthogonalEdgeStyle;rounded=0;orthogonalLoop=1;jettySize=auto;html=1;exitX=0.5;exitY=1;exitDx=0;exitDy=0;entryX=0.5;entryY=1;entryDx=0;entryDy=0;strokeWidth=3;" edge="1" parent="1" source="Ovf7T6jThl39e3ReQagI-94" target="Ovf7T6jThl39e3ReQagI-90">
          <mxGeometry relative="1" as="geometry">
            <Array as="points">
              <mxPoint x="1970" y="1800" />
              <mxPoint x="1800" y="1800" />
            </Array>
          </mxGeometry>
        </mxCell>
        <mxCell id="Ovf7T6jThl39e3ReQagI-94" value="&lt;b style=&quot;background-color: rgb(251, 251, 251);&quot;&gt;Responder al usuario con un mensaje de soporte con la playlist que necesita en el momento&lt;/b&gt;" style="rounded=1;whiteSpace=wrap;html=1;shadow=1;sketch=1;curveFitting=1;jiggle=2;" vertex="1" parent="1">
          <mxGeometry x="1850" y="1530" width="240" height="60" as="geometry" />
        </mxCell>
        <mxCell id="Ovf7T6jThl39e3ReQagI-97" value="&lt;b&gt;Chat History&lt;br&gt;User &amp;amp; bot&lt;br&gt;&lt;br&gt;&lt;/b&gt;&lt;div&gt;&lt;b&gt;+&lt;/b&gt;&lt;/div&gt;&lt;div&gt;&lt;b&gt;&lt;br&gt;User Mood&lt;br&gt;Preferencia Mood Musica&lt;/b&gt;&lt;/div&gt;&lt;div&gt;&lt;b&gt;spotify playlist Link&lt;/b&gt;&lt;/div&gt;" style="rounded=1;whiteSpace=wrap;html=1;shadow=1;sketch=1;curveFitting=1;jiggle=2;" vertex="1" parent="1">
          <mxGeometry x="1470" y="1500" width="160" height="340" as="geometry" />
        </mxCell>
        <mxCell id="Ovf7T6jThl39e3ReQagI-100" style="edgeStyle=orthogonalEdgeStyle;rounded=0;orthogonalLoop=1;jettySize=auto;html=1;exitX=1;exitY=0.5;exitDx=0;exitDy=0;entryX=0;entryY=0.5;entryDx=0;entryDy=0;strokeWidth=3;startArrow=classic;startFill=1;" edge="1" parent="1" source="Ovf7T6jThl39e3ReQagI-101" target="Ovf7T6jThl39e3ReQagI-94">
          <mxGeometry relative="1" as="geometry" />
        </mxCell>
        <mxCell id="Ovf7T6jThl39e3ReQagI-101" value="&lt;b&gt;BOT&amp;nbsp; 5&lt;/b&gt;" style="rounded=1;whiteSpace=wrap;html=1;shadow=1;sketch=1;curveFitting=1;jiggle=2;" vertex="1" parent="1">
          <mxGeometry x="1671.25" y="1540" width="78.75" height="40" as="geometry" />
        </mxCell>
        <mxCell id="Ovf7T6jThl39e3ReQagI-105" style="edgeStyle=orthogonalEdgeStyle;rounded=0;orthogonalLoop=1;jettySize=auto;html=1;exitX=0.5;exitY=1;exitDx=0;exitDy=0;" edge="1" parent="1">
          <mxGeometry relative="1" as="geometry">
            <mxPoint x="1910" y="1860" as="sourcePoint" />
            <mxPoint x="1910" y="1860" as="targetPoint" />
          </mxGeometry>
        </mxCell>
        <mxCell id="Ovf7T6jThl39e3ReQagI-108" style="edgeStyle=orthogonalEdgeStyle;rounded=0;orthogonalLoop=1;jettySize=auto;html=1;exitX=1;exitY=0.5;exitDx=0;exitDy=0;entryX=0;entryY=0.5;entryDx=0;entryDy=0;strokeWidth=3;startArrow=classic;startFill=1;" edge="1" parent="1">
          <mxGeometry relative="1" as="geometry">
            <mxPoint x="1631.25" y="1559.5699999999997" as="sourcePoint" />
            <mxPoint x="1671.25" y="1559.5699999999997" as="targetPoint" />
          </mxGeometry>
        </mxCell>
        <mxCell id="Ovf7T6jThl39e3ReQagI-112" style="edgeStyle=orthogonalEdgeStyle;rounded=0;orthogonalLoop=1;jettySize=auto;html=1;exitX=0.5;exitY=0;exitDx=0;exitDy=0;entryX=0.5;entryY=0;entryDx=0;entryDy=0;strokeWidth=3;" edge="1" parent="1" source="Ovf7T6jThl39e3ReQagI-90" target="Ovf7T6jThl39e3ReQagI-93">
          <mxGeometry relative="1" as="geometry" />
        </mxCell>
        <mxCell id="Ovf7T6jThl39e3ReQagI-114" value="" style="shape=flexArrow;endArrow=classic;html=1;rounded=0;sketch=1;curveFitting=1;jiggle=2;shadow=1;" edge="1" parent="1">
          <mxGeometry width="50" height="50" relative="1" as="geometry">
            <mxPoint x="2210" y="729" as="sourcePoint" />
            <mxPoint x="2270.77" y="729" as="targetPoint" />
          </mxGeometry>
        </mxCell>
        <mxCell id="Ovf7T6jThl39e3ReQagI-116" value="&lt;font style=&quot;font-size: 50px;&quot;&gt;&lt;b style=&quot;&quot;&gt;CHATBOT&lt;/b&gt;&lt;/font&gt;" style="text;html=1;align=center;verticalAlign=middle;whiteSpace=wrap;rounded=1;strokeColor=default;fillColor=default;strokeWidth=5;shadow=1;sketch=1;curveFitting=1;jiggle=2;" vertex="1" parent="1">
          <mxGeometry x="2495" y="277.5" width="290" height="65" as="geometry" />
        </mxCell>
        <mxCell id="Ovf7T6jThl39e3ReQagI-117" value="" style="rounded=0;whiteSpace=wrap;html=1;sketch=1;curveFitting=1;jiggle=2;shadow=1;" vertex="1" parent="1">
          <mxGeometry x="250" y="210" width="640" height="1920" as="geometry" />
        </mxCell>
        <mxCell id="Ovf7T6jThl39e3ReQagI-118" value="&lt;font style=&quot;font-size: 50px;&quot;&gt;&lt;b style=&quot;&quot;&gt;USER WHATSAPP CHAT&lt;/b&gt;&lt;/font&gt;" style="text;html=1;align=center;verticalAlign=middle;whiteSpace=wrap;rounded=1;strokeColor=default;fillColor=default;strokeWidth=5;shadow=1;sketch=1;curveFitting=1;jiggle=2;" vertex="1" parent="1">
          <mxGeometry x="380" y="1030" width="380" height="280" as="geometry" />
        </mxCell>
        <mxCell id="Ovf7T6jThl39e3ReQagI-120" value="" style="shape=image;verticalLabelPosition=bottom;labelBackgroundColor=default;verticalAlign=top;aspect=fixed;imageAspect=0;image=https://cdn-icons-png.flaticon.com/512/3413/3413115.png;" vertex="1" parent="1">
          <mxGeometry x="930" y="990" width="400" height="400" as="geometry" />
        </mxCell>
        <mxCell id="Ovf7T6jThl39e3ReQagI-121" value="&lt;font style=&quot;font-size: 25px;&quot;&gt;&lt;b&gt;Twilio API, REST API&lt;/b&gt;&lt;/font&gt;" style="text;html=1;align=center;verticalAlign=middle;whiteSpace=wrap;rounded=0;" vertex="1" parent="1">
          <mxGeometry x="997.5" y="940" width="265" height="30" as="geometry" />
        </mxCell>
      </root>
    </mxGraphModel>
  </diagram>
</mxfile>
